
<svg xmlns="http://www.w3.org/2000/svg" id="Layer_1" data-name="Layer 1" viewBox="0 0 512 512" width="512" height="512"><title>Save Money</title><path d="M343.352,305.89c-.048.027-.095.054-.143.079l-11.875,6.457a44.248,44.248,0,0,1,15.993,7.287l25.483-13.73A29.268,29.268,0,0,0,343.352,305.89Z"/><circle cx="102.243" cy="451.863" r="6.449"/><path d="M363.17,340.787l2.78-1.466,50.718-27.362c-5.629-5.243-14.3-8.007-21.2-4.553l-39.081,21.058A44.414,44.414,0,0,1,363.17,340.787Z"/><path d="M435.468,315.452,371.6,349.909l-5.93,3.127c.053.885.088,1.774.088,2.672a6,6,0,0,1-6,6c-.09,0-.181,0-.271-.007l-44.093-2a212.449,212.449,0,0,0-38.624,1.783,6,6,0,0,1-1.645-11.893,224.592,224.592,0,0,1,40.812-1.893l37.206,1.562A32.61,32.61,0,0,0,321.322,323H269.629a67.691,67.691,0,0,1-29.366-6.592l-5.331-2.493a79.711,79.711,0,0,0-82.757,7.982l-12.683,11.3a56.467,56.467,0,0,1-21.048,11.826l25.258,82.85,35.424-22.393c.091-.057.184-.112.278-.164a34.754,34.754,0,0,1,25.335-3.435l77.508,14.272a88.7,88.7,0,0,0,54.406-7.554L465.52,320.122A25.113,25.113,0,0,0,435.468,315.452Z"/><path d="M145.715,475,97.5,317H46.48L65.765,475Zm-43.472-41.586a18.449,18.449,0,1,1-18.449,18.449A18.469,18.469,0,0,1,102.243,433.414Z"/><path d="M256.9,67.631a94,94,0,1,0,94,94A94.106,94.106,0,0,0,256.9,67.631Zm18.886,67.261,12.256.177A5.966,5.966,0,1,1,287.977,147h-.066l-12.264-.1a32.65,32.65,0,0,1-32.391,26.3l-2.7,0,33.149,32.019a6.01,6.01,0,0,1-8.335,8.661l-44-42.463a6.106,6.106,0,0,1-1.384-6.66,6.027,6.027,0,0,1,5.551-3.75H243.61a20.613,20.613,0,0,0,19.707-14.355l-37.56-.3A6.176,6.176,0,0,1,225.82,134h.066l37.572.6a20.085,20.085,0,0,0-5.081-8.528,20.506,20.506,0,0,0-14.549-6.184l-17.785-.179a6,6,0,1,1,.129-12l17.785.181,44.369.455A5.83,5.83,0,1,1,288.263,120H269.129A32.874,32.874,0,0,1,275.784,134.892Z"/><path d="M404,104.459a6,6,0,0,0-6,6v10a6,6,0,1,0,12,0v-10A6,6,0,0,0,404,104.459Z"/><path d="M404,134.459a6,6,0,0,0-6,6v10a6,6,0,1,0,12,0v-10A6,6,0,0,0,404,134.459Z"/><path d="M384.249,124a6,6,0,0,0,0,12h10a6,6,0,0,0,0-12Z"/><path d="M414.249,136h10a6,6,0,0,0,0-12h-10a6,6,0,0,0,0,12Z"/><path d="M141,36.79a6,6,0,0,0-6,6v10a6,6,0,0,0,12,0v-10A6,6,0,0,0,141,36.79Z"/><path d="M141,66.79a6,6,0,0,0-6,6v10a6,6,0,1,0,12,0v-10A6,6,0,0,0,141,66.79Z"/><path d="M121.11,57a6,6,0,0,0,0,12h10a6,6,0,0,0,0-12Z"/><path d="M161.11,57h-10a6,6,0,0,0,0,12h10a6,6,0,0,0,0-12Z"/></svg>